<?xml version="1.0" encoding="utf-8"?>
<!-- Generator: Adobe Illustrator 16.0.0, SVG Export Plug-In . SVG Version: 6.00 Build 0)  -->
<!DOCTYPE svg PUBLIC "-//W3C//DTD SVG 1.1//EN" "http://www.w3.org/Graphics/SVG/1.1/DTD/svg11.dtd">
<svg version="1.1" id="nginLab" xmlns="http://www.w3.org/2000/svg" xmlns:xlink="http://www.w3.org/1999/xlink" x="0px" y="0px"
	 width="309px" height="289.5px" viewBox="0 0 309 289.5" enable-background="new 0 0 309 289.5" xml:space="preserve">
<circle id="gray-engine-xl" fill="#FFFDFD" stroke="#404040" stroke-width="15" stroke-miterlimit="10" cx="152.251" cy="153.379" r="106.041"/>
<path id="blue-liquid" fill="#00C1FC" stroke="#FFFFFF" stroke-width="10" stroke-miterlimit="10" d="M240.595,122.847
	c-88.492,46.201-87.087-44.619-175.09-3.314c-3.638,9.921-5.626,20.642-5.632,31.829c-0.031,51.145,41.409,92.625,92.554,92.657
	c51.146,0.028,92.629-41.41,92.659-92.557C245.093,141.477,243.516,131.859,240.595,122.847z"/>
<circle id="gray-engine-sm_3_" fill="#FFFFFF" stroke="#404040" stroke-width="15" stroke-miterlimit="10" cx="60.583" cy="206.722" r="27.666"/>
<circle id="gray-engine-sm_2_" fill="#FFFFFF" stroke="#404040" stroke-width="15" stroke-miterlimit="10" cx="244.085" cy="206.398" r="27.666"/>
<circle id="gray-engine-sm_1_" fill="#FFFFFF" stroke="#404040" stroke-width="15" stroke-miterlimit="10" cx="152.251" cy="47.321" r="27.665"/>
<g id="blue-bubble-group">
	<circle id="white-bubble-xl_1_" fill="#00C1FC" cx="179.922" cy="118.266" r="12.5"/>
	<circle id="white-bubble-sm_1_" fill="#00C1FC" cx="216.092" cy="118.678" r="4"/>
	<path id="white-bublble-md" fill="#00C1FC" d="M206.332,88.766c0,4.143-3.359,7.5-7.5,7.5c-4.139,0-7.5-3.357-7.5-7.5
		c0-4.142,3.361-7.5,7.5-7.5C202.973,81.266,206.332,84.625,206.332,88.766z"/>
</g>
<g id="white-bubble-group">
	<ellipse id="white-bubble-xl" fill="#FFFFFF" cx="166.436" cy="166.54" rx="12.186" ry="12.438"/>
	<ellipse id="white-bubble-sm" fill="#FFFFFF" cx="201.692" cy="166.13" rx="3.897" ry="3.979"/>
	<ellipse id="white-bubble-md" fill="#FFFFFF" cx="184.869" cy="195.893" rx="7.311" ry="7.462"/>
</g>
<path id="gray-engine-sm_7_" fill="none" stroke="#FFFFFF" stroke-width="10" stroke-miterlimit="10" d="M77.826,244.5
	c-5.22,2.499-11.068,3.898-17.243,3.898c-22.092,0-40-17.906-40-40.001c0-22.093,17.908-39.999,40-39.999
	c22.092,0,40,17.906,40,39.999c0,8.284-2.518,15.982-6.832,22.364"/>
<path id="gray-engine-sm_4_" fill="none" stroke="#FFFFFF" stroke-width="10" stroke-miterlimit="10" d="M111.758,43.584
	c0.547-5.762,2.359-11.495,5.54-16.788c11.378-18.936,35.95-25.064,54.889-13.685c18.938,11.378,25.062,35.952,13.684,54.888
	c-11.378,18.937-35.95,25.064-54.887,13.686c-7.101-4.267-12.403-10.389-15.651-17.374"/>
<path id="gray-engine-sm_5_" fill="none" stroke="#FFFFFF" stroke-width="10" stroke-miterlimit="10" d="M268.06,174.567
	c4.597,3.518,8.498,8.093,11.302,13.594c10.029,19.685,2.205,43.771-17.481,53.801c-19.686,10.03-43.769,2.202-53.799-17.481
	c-10.029-19.684-2.205-43.77,17.48-53.8c7.381-3.761,15.383-5.012,23.027-4.065"/>
</svg>
