<?xml version="1.0" encoding="utf-8"?>
<!-- Generator: Adobe Illustrator 16.0.0, SVG Export Plug-In . SVG Version: 6.00 Build 0)  -->
<!DOCTYPE svg PUBLIC "-//W3C//DTD SVG 1.1//EN" "http://www.w3.org/Graphics/SVG/1.1/DTD/svg11.dtd" [
	<!ENTITY ns_extend "http://ns.adobe.com/Extensibility/1.0/">
	<!ENTITY ns_ai "http://ns.adobe.com/AdobeIllustrator/10.0/">
	<!ENTITY ns_graphs "http://ns.adobe.com/Graphs/1.0/">
	<!ENTITY ns_vars "http://ns.adobe.com/Variables/1.0/">
	<!ENTITY ns_imrep "http://ns.adobe.com/ImageReplacement/1.0/">
	<!ENTITY ns_sfw "http://ns.adobe.com/SaveForWeb/1.0/">
	<!ENTITY ns_custom "http://ns.adobe.com/GenericCustomNamespace/1.0/">
	<!ENTITY ns_adobe_xpath "http://ns.adobe.com/XPath/1.0/">
]>
<svg version="1.1" id="nginLab" xmlns:x="&ns_extend;" xmlns:i="&ns_ai;" xmlns:graph="&ns_graphs;"
	 xmlns="http://www.w3.org/2000/svg" xmlns:xlink="http://www.w3.org/1999/xlink" x="0px" y="0px" width="816.333px"
	 height="289.5px" viewBox="0 0 816.333 289.5" enable-background="new 0 0 816.333 289.5" xml:space="preserve">
<metadata>
	<sfw  xmlns="&ns_sfw;">
		<slices></slices>
		<sliceSourceBounds  x="166.583" y="34.561" height="504.299" width="771.969" bottomLeftOrigin="true"></sliceSourceBounds>
	</sfw>
</metadata>
<circle id="gray-engine-xl" fill="#FFFDFD" stroke="#404040" stroke-width="15" stroke-miterlimit="10" cx="152.251" cy="153.379" r="106.041"/>
<path id="blue-liquid" fill="#00C1FC" stroke="#FFFFFF" stroke-width="10" stroke-miterlimit="10" d="M240.595,122.847
	c-88.492,46.201-87.087-44.619-175.09-3.314c-3.638,9.921-5.626,20.642-5.632,31.829c-0.031,51.145,41.409,92.625,92.554,92.657
	c51.146,0.028,92.629-41.41,92.659-92.557C245.093,141.477,243.516,131.859,240.595,122.847z"/>
<circle id="gray-engine-sm_3_" fill="#FFFFFF" stroke="#404040" stroke-width="15" stroke-miterlimit="10" cx="60.583" cy="206.722" r="27.666"/>
<circle id="gray-engine-sm_2_" fill="#FFFFFF" stroke="#404040" stroke-width="15" stroke-miterlimit="10" cx="244.085" cy="206.398" r="27.666"/>
<circle id="gray-engine-sm_1_" fill="#FFFFFF" stroke="#404040" stroke-width="15" stroke-miterlimit="10" cx="152.251" cy="47.321" r="27.665"/>
<g id="blue-bubble-group">
	<circle id="white-bubble-xl_1_" fill="#00C1FC" cx="179.922" cy="118.266" r="12.5"/>
	<circle id="white-bubble-sm_1_" fill="#00C1FC" cx="216.092" cy="118.678" r="4"/>
	<path id="white-bublble-md" fill="#00C1FC" d="M206.332,88.766c0,4.143-3.359,7.5-7.5,7.5c-4.139,0-7.5-3.357-7.5-7.5
		c0-4.142,3.361-7.5,7.5-7.5C202.973,81.266,206.332,84.625,206.332,88.766z"/>
</g>
<g id="white-bubble-group">
	<ellipse id="white-bubble-xl" fill="#FFFFFF" cx="166.436" cy="166.54" rx="12.186" ry="12.438"/>
	<ellipse id="white-bubble-sm" fill="#FFFFFF" cx="201.692" cy="166.13" rx="3.897" ry="3.979"/>
	<ellipse id="white-bubble-md" fill="#FFFFFF" cx="184.869" cy="195.893" rx="7.311" ry="7.462"/>
</g>
<path id="gray-engine-sm_7_" fill="none" stroke="#FFFFFF" stroke-width="10" stroke-miterlimit="10" d="M77.826,244.5
	c-5.22,2.499-11.068,3.898-17.243,3.898c-22.092,0-40-17.906-40-40.001c0-22.093,17.908-39.999,40-39.999
	c22.092,0,40,17.906,40,39.999c0,8.284-2.518,15.982-6.832,22.364"/>
<path id="gray-engine-sm_4_" fill="none" stroke="#FFFFFF" stroke-width="10" stroke-miterlimit="10" d="M111.758,43.584
	c0.547-5.762,2.359-11.495,5.54-16.788c11.378-18.936,35.95-25.064,54.889-13.685c18.938,11.378,25.062,35.952,13.684,54.888
	c-11.378,18.937-35.95,25.064-54.887,13.686c-7.101-4.267-12.403-10.389-15.651-17.374"/>
<path id="gray-engine-sm_5_" fill="none" stroke="#FFFFFF" stroke-width="10" stroke-miterlimit="10" d="M268.06,174.567
	c4.597,3.518,8.498,8.093,11.302,13.594c10.029,19.685,2.205,43.771-17.481,53.801c-19.686,10.03-43.769,2.202-53.799-17.481
	c-10.029-19.684-2.205-43.77,17.48-53.8c7.381-3.761,15.383-5.012,23.027-4.065"/>
<g>
	<g>
		<path fill="#404040" d="M320.137,114.703l32.063,48.516v-48.965c0-3.181,0.683-5.568,2.05-7.16
			c1.365-1.59,3.209-2.386,5.531-2.386c2.395,0,4.285,0.796,5.671,2.386c1.384,1.592,2.077,3.979,2.077,7.16v64.744
			c0,7.226-2.995,10.838-8.984,10.838c-1.497,0-2.845-0.217-4.043-0.646c-1.198-0.431-2.321-1.113-3.369-2.049
			s-2.021-2.03-2.92-3.285c-0.898-1.254-1.797-2.536-2.695-3.847l-31.276-47.954v48.235c0,3.144-0.729,5.521-2.19,7.131
			c-1.459,1.609-3.332,2.415-5.615,2.415c-2.357,0-4.248-0.814-5.671-2.443c-1.423-1.628-2.134-3.995-2.134-7.103V116.78
			c0-2.695,0.299-4.81,0.898-6.345c0.711-1.685,1.89-3.06,3.537-4.127c1.647-1.066,3.426-1.6,5.335-1.6
			c1.497,0,2.779,0.244,3.847,0.73c1.066,0.487,2.002,1.143,2.808,1.965c0.804,0.824,1.628,1.891,2.471,3.201
			C318.368,111.915,319.238,113.28,320.137,114.703z"/>
		<path fill="#404040" d="M443.39,138.736v44.529c0,5.092-0.544,9.471-1.629,13.14c-1.086,3.668-2.827,6.7-5.223,9.097
			c-2.396,2.396-5.53,4.174-9.405,5.334c-3.874,1.16-8.694,1.741-14.459,1.741c-5.278,0-9.995-0.739-14.15-2.218
			c-4.155-1.479-7.356-3.389-9.603-5.728c-2.246-2.34-3.369-4.745-3.369-7.216c0-1.872,0.637-3.397,1.91-4.576
			c1.271-1.18,2.807-1.77,4.604-1.77c2.246,0,4.212,0.992,5.896,2.977c0.823,1.011,1.675,2.03,2.555,3.061
			c0.879,1.029,1.854,1.909,2.92,2.639c1.067,0.73,2.349,1.272,3.847,1.629c1.497,0.355,3.219,0.533,5.166,0.533
			c3.968,0,7.047-0.553,9.237-1.656c2.189-1.104,3.725-2.649,4.604-4.633c0.879-1.984,1.394-4.108,1.544-6.373
			c0.149-2.265,0.262-5.905,0.337-10.922c-2.358,3.295-5.082,5.803-8.17,7.524c-3.089,1.723-6.767,2.583-11.034,2.583
			c-5.129,0-9.611-1.31-13.448-3.931c-3.838-2.62-6.786-6.289-8.845-11.006s-3.088-10.164-3.088-16.34
			c0-4.605,0.626-8.76,1.881-12.466c1.254-3.706,3.041-6.831,5.363-9.377c2.32-2.545,4.997-4.464,8.029-5.756
			c3.032-1.291,6.363-1.937,9.995-1.937c4.342,0,8.104,0.833,11.286,2.499c3.182,1.667,6.14,4.277,8.873,7.833v-2.078
			c0-2.658,0.654-4.717,1.965-6.177c1.31-1.46,2.994-2.19,5.054-2.19c2.957,0,4.922,0.964,5.896,2.892
			C442.902,132.326,443.39,135.105,443.39,138.736z M398.973,158.164c0,6.215,1.356,10.914,4.071,14.095
			c2.714,3.183,6.223,4.772,10.528,4.772c2.545,0,4.95-0.682,7.216-2.049c2.265-1.366,4.107-3.426,5.531-6.177
			c1.422-2.752,2.133-6.093,2.133-10.023c0-6.251-1.375-11.118-4.127-14.6c-2.751-3.481-6.373-5.222-10.865-5.222
			c-4.38,0-7.89,1.666-10.528,4.998C400.292,147.291,398.973,152.025,398.973,158.164z"/>
		<path fill="#404040" d="M468.937,120.374c-2.135,0-3.959-0.654-5.476-1.965c-1.516-1.31-2.274-3.163-2.274-5.559
			c0-2.17,0.777-3.959,2.331-5.362c1.553-1.404,3.359-2.106,5.419-2.106c1.983,0,3.742,0.637,5.277,1.909
			c1.535,1.273,2.303,3.126,2.303,5.559c0,2.358-0.749,4.203-2.246,5.531C472.772,119.71,470.994,120.374,468.937,120.374z
			 M476.517,136.209v44.304c0,3.07-0.73,5.391-2.189,6.963c-1.461,1.572-3.313,2.359-5.56,2.359s-4.071-0.806-5.475-2.415
			c-1.404-1.609-2.106-3.911-2.106-6.907v-43.854c0-3.032,0.702-5.315,2.106-6.851c1.403-1.535,3.229-2.302,5.475-2.302
			s4.099,0.768,5.56,2.302C475.786,131.343,476.517,133.477,476.517,136.209z"/>
		<path fill="#404040" d="M508.579,135.984v1.853c2.695-3.556,5.643-6.167,8.844-7.833c3.2-1.665,6.879-2.499,11.033-2.499
			c4.043,0,7.655,0.88,10.838,2.639c3.182,1.76,5.559,4.249,7.131,7.468c1.012,1.873,1.666,3.894,1.966,6.064
			c0.299,2.171,0.449,4.942,0.449,8.311v28.524c0,3.07-0.702,5.391-2.105,6.963c-1.404,1.572-3.229,2.359-5.476,2.359
			c-2.283,0-4.137-0.806-5.559-2.415c-1.423-1.609-2.134-3.911-2.134-6.907v-25.549c0-5.054-0.702-8.919-2.105-11.596
			c-1.404-2.676-4.203-4.015-8.396-4.015c-2.732,0-5.222,0.814-7.468,2.442c-2.246,1.629-3.894,3.866-4.941,6.71
			c-0.749,2.284-1.123,6.552-1.123,12.803v19.204c0,3.108-0.722,5.438-2.162,6.991c-1.441,1.553-3.304,2.331-5.587,2.331
			c-2.209,0-4.024-0.806-5.447-2.415s-2.133-3.911-2.133-6.907v-44.304c0-2.92,0.636-5.1,1.908-6.542
			c1.272-1.44,3.014-2.162,5.223-2.162c1.348,0,2.563,0.318,3.65,0.955c1.085,0.637,1.955,1.592,2.61,2.864
			C508.25,132.597,508.579,134.151,508.579,135.984z"/>
		<path fill="#00C1FC" d="M583.821,114.815v59.915h33.803c2.695,0,4.764,0.655,6.205,1.966c1.44,1.311,2.162,2.957,2.162,4.94
			c0,2.021-0.712,3.66-2.134,4.914c-1.423,1.255-3.501,1.881-6.233,1.881h-40.261c-3.632,0-6.242-0.805-7.833-2.414
			c-1.592-1.609-2.387-4.212-2.387-7.806v-63.396c0-3.369,0.758-5.896,2.274-7.581c1.516-1.685,3.509-2.527,5.979-2.527
			c2.508,0,4.539,0.833,6.093,2.499C583.043,108.873,583.821,111.409,583.821,114.815z"/>
		<path fill="#00C1FC" d="M676.919,181.187c-3.705,2.884-7.291,5.046-10.753,6.486c-3.463,1.44-7.347,2.162-11.651,2.162
			c-3.931,0-7.384-0.778-10.36-2.331c-2.976-1.553-5.27-3.658-6.878-6.317c-1.61-2.657-2.415-5.539-2.415-8.647
			c0-4.191,1.328-7.768,3.987-10.725c2.657-2.957,6.307-4.941,10.949-5.952c0.973-0.225,3.388-0.729,7.244-1.517
			c3.854-0.785,7.159-1.506,9.91-2.161c2.752-0.655,5.736-1.45,8.957-2.387c-0.188-4.043-1.003-7.009-2.443-8.9
			c-1.441-1.89-4.427-2.835-8.956-2.835c-3.894,0-6.822,0.543-8.788,1.628c-1.965,1.086-3.649,2.715-5.054,4.885
			c-1.403,2.171-2.396,3.604-2.976,4.295c-0.581,0.693-1.825,1.039-3.734,1.039c-1.723,0-3.21-0.552-4.464-1.656
			c-1.255-1.104-1.882-2.518-1.882-4.24c0-2.695,0.955-5.315,2.864-7.861c1.909-2.545,4.886-4.641,8.929-6.289
			c4.043-1.647,9.077-2.471,15.104-2.471c6.738,0,12.035,0.796,15.892,2.386c3.854,1.592,6.578,4.109,8.17,7.553
			c1.591,3.445,2.387,8.012,2.387,13.701c0,3.594-0.01,6.646-0.028,9.152c-0.02,2.509-0.048,5.299-0.085,8.367
			c0,2.883,0.478,5.887,1.433,9.013c0.954,3.126,1.432,5.138,1.432,6.036c0,1.572-0.739,3.004-2.218,4.296
			c-1.479,1.291-3.154,1.938-5.025,1.938c-1.572,0-3.127-0.74-4.661-2.219C680.27,186.138,678.641,183.995,676.919,181.187z
			 M675.909,159.007c-2.246,0.823-5.513,1.694-9.799,2.611c-4.287,0.917-7.254,1.591-8.9,2.021c-1.647,0.431-3.22,1.272-4.717,2.526
			c-1.498,1.255-2.246,3.004-2.246,5.25c0,2.322,0.879,4.296,2.639,5.925c1.76,1.628,4.062,2.442,6.907,2.442
			c3.032,0,5.83-0.664,8.395-1.993c2.563-1.329,4.445-3.041,5.644-5.138c1.385-2.321,2.078-6.14,2.078-11.455V159.007z"/>
		<path fill="#00C1FC" d="M721.446,113.467v23.416c2.883-2.995,5.821-5.287,8.816-6.879c2.994-1.59,6.7-2.386,11.118-2.386
			c5.091,0,9.555,1.208,13.393,3.622c3.837,2.415,6.813,5.916,8.928,10.501c2.114,4.586,3.173,10.023,3.173,16.313
			c0,4.642-0.59,8.899-1.769,12.774c-1.18,3.874-2.892,7.235-5.138,10.079c-2.246,2.846-4.97,5.045-8.171,6.598
			c-3.2,1.553-6.729,2.331-10.585,2.331c-2.357,0-4.576-0.281-6.653-0.843c-2.078-0.562-3.847-1.3-5.307-2.218
			c-1.46-0.917-2.705-1.862-3.734-2.836c-1.03-0.973-2.386-2.433-4.071-4.38v1.517c0,2.883-0.692,5.063-2.077,6.541
			c-1.386,1.479-3.145,2.219-5.278,2.219c-2.172,0-3.902-0.74-5.194-2.219c-1.291-1.479-1.937-3.658-1.937-6.541v-66.934
			c0-3.107,0.626-5.456,1.881-7.047c1.254-1.59,3.004-2.386,5.25-2.386c2.358,0,4.174,0.758,5.447,2.274
			C720.81,108.498,721.446,110.66,721.446,113.467z M722.177,159.007c0,6.103,1.395,10.791,4.184,14.066
			c2.788,3.276,6.447,4.913,10.978,4.913c3.855,0,7.178-1.675,9.967-5.025c2.788-3.35,4.184-8.15,4.184-14.403
			c0-4.043-0.581-7.524-1.741-10.444s-2.807-5.175-4.941-6.767c-2.133-1.59-4.623-2.386-7.468-2.386
			c-2.92,0-5.522,0.796-7.806,2.386c-2.283,1.592-4.08,3.894-5.391,6.907C722.831,151.268,722.177,154.852,722.177,159.007z"/>
	</g>
</g>
<g display="none">
	<path display="inline" fill="#404040" d="M334.137,408.703l32.063,48.516v-48.965c0-3.181,0.683-5.567,2.05-7.159
		c1.365-1.591,3.209-2.386,5.531-2.386c2.395,0,4.285,0.795,5.671,2.386c1.384,1.592,2.077,3.979,2.077,7.159v64.744
		c0,7.226-2.995,10.838-8.984,10.838c-1.497,0-2.845-0.217-4.043-0.646c-1.198-0.431-2.321-1.113-3.369-2.049
		s-2.021-2.03-2.92-3.285c-0.898-1.254-1.797-2.536-2.695-3.847l-31.276-47.954v48.234c0,3.145-0.729,5.522-2.19,7.132
		c-1.459,1.609-3.332,2.415-5.615,2.415c-2.357,0-4.248-0.814-5.671-2.443c-1.423-1.628-2.134-3.995-2.134-7.104v-63.508
		c0-2.695,0.299-4.81,0.898-6.346c0.711-1.684,1.89-3.06,3.537-4.127c1.647-1.066,3.426-1.6,5.335-1.6
		c1.497,0,2.779,0.244,3.847,0.729c1.066,0.487,2.002,1.143,2.808,1.966c0.804,0.823,1.628,1.891,2.471,3.2
		C332.368,405.916,333.238,407.281,334.137,408.703z"/>
	<path display="inline" fill="#404040" d="M457.39,432.736v44.529c0,5.092-0.544,9.471-1.629,13.14
		c-1.086,3.668-2.827,6.7-5.223,9.097c-2.396,2.396-5.53,4.174-9.405,5.334c-3.874,1.16-8.694,1.741-14.459,1.741
		c-5.278,0-9.995-0.739-14.15-2.218c-4.155-1.479-7.356-3.389-9.603-5.728c-2.246-2.34-3.369-4.745-3.369-7.216
		c0-1.872,0.637-3.397,1.91-4.576c1.271-1.18,2.807-1.77,4.604-1.77c2.246,0,4.212,0.992,5.896,2.977
		c0.823,1.011,1.675,2.03,2.555,3.061c0.879,1.029,1.854,1.909,2.92,2.639c1.067,0.73,2.349,1.272,3.847,1.629
		c1.497,0.355,3.219,0.533,5.166,0.533c3.968,0,7.047-0.553,9.237-1.656c2.189-1.104,3.725-2.649,4.604-4.633
		c0.879-1.984,1.394-4.108,1.544-6.373c0.149-2.265,0.262-5.905,0.337-10.922c-2.358,3.295-5.082,5.803-8.17,7.524
		c-3.089,1.723-6.767,2.583-11.034,2.583c-5.129,0-9.611-1.31-13.448-3.931c-3.838-2.62-6.786-6.289-8.845-11.006
		s-3.088-10.163-3.088-16.341c0-4.604,0.626-8.76,1.881-12.465c1.254-3.707,3.041-6.832,5.363-9.378
		c2.32-2.546,4.997-4.464,8.029-5.756c3.032-1.291,6.363-1.937,9.995-1.937c4.342,0,8.104,0.833,11.286,2.498
		c3.182,1.666,6.14,4.277,8.873,7.834v-2.078c0-2.658,0.654-4.717,1.965-6.177c1.31-1.46,2.994-2.19,5.054-2.19
		c2.957,0,4.922,0.965,5.896,2.893S457.39,429.106,457.39,432.736z M412.973,452.166c0,6.214,1.356,10.912,4.071,14.094
		c2.714,3.182,6.223,4.773,10.528,4.773c2.545,0,4.95-0.684,7.216-2.05c2.265-1.366,4.107-3.426,5.531-6.177
		c1.422-2.752,2.133-6.093,2.133-10.023c0-6.252-1.375-11.118-4.127-14.6c-2.751-3.481-6.373-5.223-10.865-5.223
		c-4.38,0-7.89,1.666-10.528,4.998C414.292,441.291,412.973,446.026,412.973,452.166z"/>
	<path display="inline" fill="#404040" d="M482.937,414.375c-2.135,0-3.959-0.654-5.476-1.965c-1.516-1.311-2.274-3.164-2.274-5.56
		c0-2.171,0.777-3.959,2.331-5.362c1.553-1.404,3.359-2.105,5.419-2.105c1.983,0,3.742,0.637,5.277,1.908
		c1.535,1.273,2.303,3.127,2.303,5.56c0,2.358-0.749,4.202-2.246,5.531C486.772,413.711,484.994,414.375,482.937,414.375z
		 M490.517,430.21v44.304c0,3.07-0.73,5.391-2.189,6.963c-1.461,1.572-3.313,2.359-5.56,2.359s-4.071-0.806-5.475-2.415
		c-1.404-1.609-2.106-3.911-2.106-6.907v-43.854c0-3.032,0.702-5.315,2.106-6.851c1.403-1.535,3.229-2.303,5.475-2.303
		s4.099,0.768,5.56,2.303C489.786,425.344,490.517,427.479,490.517,430.21z"/>
	<path display="inline" fill="#404040" d="M522.579,429.985v1.853c2.695-3.556,5.643-6.166,8.844-7.833
		c3.2-1.665,6.879-2.499,11.033-2.499c4.043,0,7.655,0.881,10.838,2.64c3.182,1.761,5.559,4.249,7.131,7.468
		c1.012,1.873,1.666,3.895,1.966,6.064c0.299,2.172,0.449,4.941,0.449,8.311v28.525c0,3.07-0.702,5.391-2.105,6.963
		c-1.404,1.572-3.229,2.359-5.476,2.359c-2.283,0-4.137-0.806-5.559-2.415c-1.423-1.609-2.134-3.911-2.134-6.907v-25.549
		c0-5.054-0.702-8.918-2.105-11.596c-1.404-2.676-4.203-4.015-8.396-4.015c-2.732,0-5.222,0.814-7.468,2.442
		c-2.246,1.629-3.894,3.866-4.941,6.711c-0.749,2.283-1.123,6.551-1.123,12.803v19.203c0,3.108-0.722,5.438-2.162,6.991
		c-1.441,1.553-3.304,2.331-5.587,2.331c-2.209,0-4.024-0.806-5.447-2.415s-2.133-3.911-2.133-6.907V430.21
		c0-2.92,0.636-5.101,1.908-6.542c1.272-1.44,3.014-2.162,5.223-2.162c1.348,0,2.563,0.318,3.65,0.955
		c1.085,0.637,1.955,1.592,2.61,2.863C522.25,426.598,522.579,428.152,522.579,429.985z"/>
	<path display="inline" fill="#00C1FC" d="M597.821,408.816v59.914h33.803c2.695,0,4.764,0.655,6.205,1.965
		c1.44,1.312,2.162,2.958,2.162,4.941c0,2.021-0.712,3.66-2.134,4.914c-1.423,1.255-3.501,1.881-6.233,1.881h-40.261
		c-3.632,0-6.242-0.805-7.833-2.414c-1.592-1.609-2.387-4.212-2.387-7.806v-63.396c0-3.369,0.758-5.896,2.274-7.581
		c1.516-1.685,3.509-2.526,5.979-2.526c2.508,0,4.539,0.833,6.093,2.498C597.043,402.873,597.821,405.41,597.821,408.816z"/>
	<path display="inline" fill="#00C1FC" d="M690.919,475.188c-3.705,2.884-7.291,5.046-10.753,6.486
		c-3.463,1.44-7.347,2.162-11.651,2.162c-3.931,0-7.384-0.778-10.36-2.331c-2.976-1.553-5.27-3.658-6.878-6.317
		c-1.61-2.657-2.415-5.539-2.415-8.646c0-4.192,1.328-7.768,3.987-10.726c2.657-2.956,6.307-4.941,10.949-5.952
		c0.973-0.225,3.388-0.73,7.244-1.516c3.854-0.787,7.159-1.507,9.91-2.162c2.752-0.654,5.736-1.451,8.957-2.387
		c-0.188-4.043-1.003-7.01-2.443-8.9c-1.441-1.89-4.427-2.836-8.956-2.836c-3.894,0-6.822,0.543-8.788,1.629
		c-1.965,1.086-3.649,2.715-5.054,4.885c-1.403,2.172-2.396,3.604-2.976,4.296c-0.581,0.693-1.825,1.039-3.734,1.039
		c-1.723,0-3.21-0.552-4.464-1.656c-1.255-1.104-1.882-2.518-1.882-4.239c0-2.695,0.955-5.315,2.864-7.861s4.886-4.642,8.929-6.289
		s9.077-2.471,15.104-2.471c6.738,0,12.035,0.795,15.892,2.386c3.854,1.592,6.578,4.108,8.17,7.553
		c1.591,3.444,2.387,8.011,2.387,13.701c0,3.594-0.01,6.646-0.028,9.153c-0.02,2.508-0.048,5.297-0.085,8.366
		c0,2.884,0.478,5.888,1.433,9.013c0.954,3.126,1.432,5.138,1.432,6.036c0,1.572-0.739,3.004-2.218,4.296
		c-1.479,1.291-3.154,1.938-5.025,1.938c-1.572,0-3.127-0.74-4.661-2.219C694.27,480.139,692.641,477.996,690.919,475.188z
		 M689.909,453.008c-2.246,0.824-5.513,1.694-9.799,2.611c-4.287,0.918-7.254,1.592-8.9,2.021c-1.647,0.431-3.22,1.273-4.717,2.526
		c-1.498,1.255-2.246,3.005-2.246,5.251c0,2.321,0.879,4.295,2.639,5.924c1.76,1.628,4.062,2.442,6.907,2.442
		c3.032,0,5.83-0.664,8.395-1.993c2.563-1.328,4.445-3.041,5.644-5.139c1.385-2.32,2.078-6.139,2.078-11.455V453.008z"/>
	<path display="inline" fill="#00C1FC" d="M735.446,407.469v23.415c2.883-2.995,5.821-5.287,8.816-6.879
		c2.994-1.591,6.7-2.386,11.118-2.386c5.091,0,9.555,1.207,13.393,3.621c3.837,2.415,6.813,5.916,8.928,10.501
		c2.114,4.586,3.173,10.022,3.173,16.312c0,4.643-0.59,8.9-1.769,12.775c-1.18,3.874-2.892,7.234-5.138,10.079
		c-2.246,2.846-4.97,5.045-8.171,6.598c-3.2,1.553-6.729,2.331-10.585,2.331c-2.357,0-4.576-0.281-6.653-0.843
		c-2.078-0.562-3.847-1.3-5.307-2.218c-1.46-0.917-2.705-1.862-3.734-2.836c-1.03-0.973-2.386-2.433-4.071-4.38v1.517
		c0,2.883-0.692,5.063-2.077,6.541c-1.386,1.479-3.145,2.219-5.278,2.219c-2.172,0-3.902-0.74-5.194-2.219
		c-1.291-1.479-1.937-3.658-1.937-6.541v-66.934c0-3.107,0.626-5.456,1.881-7.048c1.254-1.591,3.004-2.386,5.25-2.386
		c2.358,0,4.174,0.758,5.447,2.273C734.81,402.499,735.446,404.66,735.446,407.469z M736.177,453.008
		c0,6.102,1.395,10.791,4.184,14.066c2.788,3.275,6.447,4.913,10.978,4.913c3.855,0,7.178-1.675,9.967-5.025
		c2.788-3.351,4.184-8.151,4.184-14.403c0-4.043-0.581-7.524-1.741-10.444s-2.807-5.175-4.941-6.767
		c-2.133-1.59-4.623-2.387-7.468-2.387c-2.92,0-5.522,0.797-7.806,2.387c-2.283,1.592-4.08,3.895-5.391,6.907
		C736.831,445.269,736.177,448.853,736.177,453.008z"/>
</g>
</svg>
