<?xml version="1.0" encoding="utf-8"?>
<!-- Generator: Adobe Illustrator 16.0.0, SVG Export Plug-In . SVG Version: 6.00 Build 0)  -->
<!DOCTYPE svg PUBLIC "-//W3C//DTD SVG 1.1//EN" "http://www.w3.org/Graphics/SVG/1.1/DTD/svg11.dtd" [
	<!ENTITY ns_extend "http://ns.adobe.com/Extensibility/1.0/">
	<!ENTITY ns_ai "http://ns.adobe.com/AdobeIllustrator/10.0/">
	<!ENTITY ns_graphs "http://ns.adobe.com/Graphs/1.0/">
	<!ENTITY ns_vars "http://ns.adobe.com/Variables/1.0/">
	<!ENTITY ns_imrep "http://ns.adobe.com/ImageReplacement/1.0/">
	<!ENTITY ns_sfw "http://ns.adobe.com/SaveForWeb/1.0/">
	<!ENTITY ns_custom "http://ns.adobe.com/GenericCustomNamespace/1.0/">
	<!ENTITY ns_adobe_xpath "http://ns.adobe.com/XPath/1.0/">
]>
<svg version="1.1" id="nginLab" xmlns:x="&ns_extend;" xmlns:i="&ns_ai;" xmlns:graph="&ns_graphs;"
	 xmlns="http://www.w3.org/2000/svg" xmlns:xlink="http://www.w3.org/1999/xlink" x="0px" y="0px" width="816.333px"
	 height="289.5px" viewBox="0 0 816.333 289.5" enable-background="new 0 0 816.333 289.5" xml:space="preserve">
<metadata>
	<x:xmpmeta  x:xmptk="Adobe XMP Core 5.3-c011 66.145661, 2012/02/06-14:56:27        " xmlns:x="adobe:ns:meta/">
		<rdf:RDF  xmlns:rdf="http://www.w3.org/1999/02/22-rdf-syntax-ns#">
			<rdf:Description  xmlns:xmp="http://ns.adobe.com/xap/1.0/" xmlns:xmpGImg="http://ns.adobe.com/xap/1.0/g/img/" rdf:about="">
				<xmp:CreatorTool>Adobe Illustrator CS6 (Windows)</xmp:CreatorTool>
				<xmp:CreateDate>2016-08-07T01:03:56-05:00</xmp:CreateDate>
				<xmp:MetadataDate>2016-08-07T01:03:56-05:00</xmp:MetadataDate>
				<xmp:ModifyDate>2016-08-07T01:03:56-05:00</xmp:ModifyDate>
				<xmp:Thumbnails>
					<rdf:Alt>
						<rdf:li  rdf:parseType="Resource">
							<xmpGImg:width>256</xmpGImg:width>
							<xmpGImg:height>168</xmpGImg:height>
							<xmpGImg:format>JPEG</xmpGImg:format>
							<xmpGImg:image>/9j/4AAQSkZJRgABAgEASABIAAD/7QAsUGhvdG9zaG9wIDMuMAA4QklNA+0AAAAAABAASAAAAAEA
AQBIAAAAAQAB/+4ADkFkb2JlAGTAAAAAAf/bAIQABgQEBAUEBgUFBgkGBQYJCwgGBggLDAoKCwoK
DBAMDAwMDAwQDA4PEA8ODBMTFBQTExwbGxscHx8fHx8fHx8fHwEHBwcNDA0YEBAYGhURFRofHx8f
Hx8fHx8fHx8fHx8fHx8fHx8fHx8fHx8fHx8fHx8fHx8fHx8fHx8fHx8fHx8f/8AAEQgAqAEAAwER
AAIRAQMRAf/EAaIAAAAHAQEBAQEAAAAAAAAAAAQFAwIGAQAHCAkKCwEAAgIDAQEBAQEAAAAAAAAA
AQACAwQFBgcICQoLEAACAQMDAgQCBgcDBAIGAnMBAgMRBAAFIRIxQVEGE2EicYEUMpGhBxWxQiPB
UtHhMxZi8CRygvElQzRTkqKyY3PCNUQnk6OzNhdUZHTD0uIIJoMJChgZhJRFRqS0VtNVKBry4/PE
1OT0ZXWFlaW1xdXl9WZ2hpamtsbW5vY3R1dnd4eXp7fH1+f3OEhYaHiImKi4yNjo+Ck5SVlpeYmZ
qbnJ2en5KjpKWmp6ipqqusra6voRAAICAQIDBQUEBQYECAMDbQEAAhEDBCESMUEFURNhIgZxgZEy
obHwFMHR4SNCFVJicvEzJDRDghaSUyWiY7LCB3PSNeJEgxdUkwgJChgZJjZFGidkdFU38qOzwygp
0+PzhJSktMTU5PRldYWVpbXF1eX1RlZmdoaWprbG1ub2R1dnd4eXp7fH1+f3OEhYaHiImKi4yNjo
+DlJWWl5iZmpucnZ6fkqOkpaanqKmqq6ytrq+v/aAAwDAQACEQMRAD8A9U4q7FXYq7FUh85+d/L/
AJP0o6jrMxRGJW3t4xymmcCvGNaj7yQB3OKvFrv/AJyo1A3VbTy/EtqCfhlnZpGFdjVUUKaexxV6
J+W/50+XfOk36PMbaZrXEstjKwdZVXdvRkAXmVG5UqD8wCcVeh4q7FXYq7FXYq7FXYq7FXYq7FXY
q7FXYq7FXYq7FXYq7FXYq7FXYq7FXYq7FXYq7FXYq7FVC9vrKwtnur64jtbWIVknmdY0Ue7MQBir
5c/MjWIvzC/Nuz0uxvhLpBlttPsbiOpQLIVM0iqdi3NmFe4UYq+j9F8leVdG0xdMsNMt0tVUK4aN
XaSneVmBLk+LYq+evzy8o2nkbzdpOu+WwLBL0tcQwRbLDc2rIWMa9lb1FPHp17bYq+lNK1ODUNOs
bxSEN9bpcxxMRy4uisdv8nmK4qjMVdirsVdirsVdirsVdirsVdirsVdirsVdirsVdirsVdirsVdi
rsVdirsVdirsVdirAPzR/N3SPJFsLZFF7rs6crexBoqA7CSYjdV8B1b8cVeH6f5f/NP83dQ+v3c7
DTFc0upyY7OLsVgiH2mA2+EH/KbFW/zC/KrWvy3udK13TLp762heORr8R8PRu435LyQFuKNtxqx3
qD2qq9N0X/nJnybNpaSavbXVpqKqBNBDGJY2YDcxNyGx/wAqlPxxV5prmq63+c35hWdrYW0ltpkA
EcYPxfV7blWW4lI+Hk3hX+VRXqVXon54+SPO14dG1HyqrG10C3ZIYbWR1u42JALRqKFhwjQfCeXt
iqV/lh/zkHK1xHonnZgjk+nDq5XhRhtxuVAoN/2xSn7XdsVe+KwYBlNVO4I6EYq7FXYq7FXYq7FX
Yq7FXYq7FXYq7FXYq7FXYq7FXYq7FXYq7FXYq7FXYq7FWJfmd59tvJflebUmCyX8p9HTrdv25mHU
/wCSg+Jvu74q8J/Kn8ttQ/MHW7jzP5mkkl0tZi08jkh7ufqYweyLtyI/1V9lX07a2ttaW8dtaxJB
bwqEhhjUIiKooFVRQADFLdxb29zbyW1zEk9vMpSWGRQ6Mp2KsrVBBxVgVz+Qv5WXFw050gxljyaO
K4nRK1rsof4R7CmKGW+XvLHl/wAuWP1HRLGKxt9iwjHxORtV3arufdiTilj+uax5zg84WtnYW7Pp
TmPkRFyR1Y/vC8lDx479xm402n00tOZTPr36/LZ5fX6zXQ10YY4/uTX8Ox77l0pi/wCdH5OWvmGz
n1/Q4BF5ggUyTwoKC7RRuCB/u0D7J79D2pp3qEl/5x4/M2e4I8l6xITNCpOjyv8AaKICXtzX+QDk
ntUdhih7virsVdirsVdirsVdirsVdirsVdirsVdirsVdirsVdirsVdirsVdirsVdir5f/ODUNQ88
/mxb+VtPblDZSrp9uNyolYg3MrD/ACDs3smKvoC1k8reTdEs9JNzHa2tlEI4YmNZGA6vwWrMWapJ
p1OZGDS5Mv0RJ/He4er7RwacfvJiP3/LmlFz+bflqNisMNzPT9sIqr/wzBvwzZQ7CzHmYj8e50OX
2v0sTUROXwH6T+hFab+ZvlW9cRvJJZudh9YUKtf9ZS6j6aZVm7GzwFgCXucjTe1GkymiTA/0h+kX
9rKo5I5Y1kidZI3FVdSCCPEEZq5RINF6GExIWDYLzvz7581nS9Y/R2nFIVhRWllZQ7MXFaDlUAAZ
0HZnZmPLj45728X7Qe0GfT5/CxVGgLNXdso8l6/PruhR3twgSdXaKXjspZafEB2qDms7R0owZTEc
ubv+xO0JavTjJIVK6PwTGx1W2vbm8t4lkV7KQRSmRGRSxHL4CftD/PoRXGyYDARJr1C3OwauOWU4
gG8Zo2K+Xf8AjoQ+bfzx8s3Hk7z7Z+Z9HHoQ6hJ9cgK9I7yFg0ooOzEh/ep8Mqch9IeXdat9b0HT
9Xt9or+COdV68eaglT7qdjiqB8+eaR5V8pajr3o/WGskUxwk0DPJIsSAkV25OK4qwL8oPzvl836j
No2uQ29nqhUyWJtw6xzKoq6cZGkPNR8XXcV8MVesTyrDBJMwJWNS5A60UVxV5Z+T/wCcOq+eNa1O
wv7GC1S3i+sWjQF6iPmE4Sc2bk3xD4hT5Yq9WxV2KuxV5p+cf5m+YfJLaSuk6bHdrfu4lnnWRkql
KRII2T425VFT26Hsq9Fsp5Lizgnlha3kmjSR4H+1GzKCUb3XpiqtirsVQuq3wsNMu74rz+rQvNw6
V4KWp9NMtwY+OYj3kBx9Xn8HFLJz4Yk/IMa8hedbzzE93FeQRxS24V0aLkFKsSKEMW3FM2PafZ0d
PwmJJB73R9gdtz1pmJxAMa5ftZfmpekdirsVdiqS+cNem0PQ5b+CNZZlZUjV68asaVNKE/fmZoNM
M2UQJoOr7Z18tJpzkiAZbDfluu8pa5Lreg2+oTRrFNJyWRErx5IxWq1qaGmDXaYYcpgDYZdka46r
TxyyFSN3XkaTjMR2TsVWySJHG0jmiICzHrQAVPTFXzF/zj5Cda/NS81i6XlNDb3V8HJrSaeRYz96
zPiqdeZLxr3X9QuWNfUuJOP+qGIUfQoGd/pMfBijHyD4z2lmOXU5J98j+xLsyHBdiqb6D5r1vQ5A
bGciEmr2z/FE3zXt8xQ5ianRYsw9Q37+rstB2tn0p/dy9P8ANPL5fq3ZLdeavJnmN4pPMFlPaXka
hDc2zclKg1of2qb/AMp+ea6Gi1OnBGKQlHuLvcvauh1pB1MJQmP4o8vx8D72U6d53/L/AEywjtLK
79OCIfBEIZyd9zUlNzXrvmry9m6vJMykLJ8x+t6DTdu9m4MYhjlUR04ZfqS7VPze06NSumWbzydp
JqRoD48RyY/hmRg7BmfrkB7nC1ftjjArFAyPedh+v7mK/m7NJ5m/JZdZuuK3dheJM4jFFqZWt+Pc
gcZgc1vaGnGHKYDlt9zvextdLVaaOSVcRu69/wCpPv8AnHTUmvPy0t4Wbl9Quri2HiAWE1P+S2YT
tUf+fX/kp9d/6Nf+oyHFXzRo3l/XIPLH+ONIkdX0jUFinZPtQ/CjxTfLm3Fvo98VfUvknzzZ+c/J
D6rFxju1hki1C2Br6c6oeQ8eLfaX2xV41/zi5/yl2rf9s/8A5nR4q9N/OT82T5ItLez0+JLjXL5W
eISbxwxA8fVdQQWJbZR7GvShVYHofnL/AJyONmvmR9POpaIVMxtZIbaMtEaNyjSP07k/D9kgN474
qivJ354eYvMn5rWdhEwi8t33KJNPaOPmhEBfmZQC5YSL/NSnbFU5/Pv8yvNXlK80a10GdLb6ysk9
zI0aSlwjKqx0kDALua039xirNvMfmm/tPyyufMtoES+/RqXcQIqiySxqwPE1rxLdDiryDyr+dX5p
a/pH6E0exGreaDI7vqJjjRI7ai8Syj04Q3IkcmotKdTiqhbfnN+ank/zPHp3nqMXELcGuIHigSRY
XNPUhktgqNSh8QaU2xV735nljl8p6nLGwaOSzlZGHQgxkg5laH+/h/WH3uv7W/xTL/Ul9zA/yc/3
v1L/AIxR/wDEjm97f+iPvLx/sZ/eZP6o+96nnMPoCF1XUYdN025v5gWjtozIyr1NOgHzOW4MRyTE
BzJcfV6mODFLJLlEW83t/NX5k+YGebRYFhtkJHwLFx7fCXuNmI9s6Kei0eDbIbPx+6LxGPtbtTWE
ywRqI7hH758/g1aefvNujaxHY+Y4w6Fh63JEV1RjTmjRURgMZ9mafNjMsJ/Hx3Ri9oNZps4x6oWO
uwBo9Rw7Fkv5p/8AKJS/8Zov15ruxf8AGB7i7z2q/wATP9aLEPK/mLzS+iw6L5bs+dxBze5umCEL
zYlQOZCDb+br4ZttZpMAyHJmlsaof2bvOdl9o6s4Bg0sLlGyZbdSa57fPmibX8wPNmiasLPzLF6k
dR6oKIkiqduUZjARh99fHK59l4M2Piwmvx1vduxe0Os0ubg1QsddgDXeK2P43epRyJJGskZDI4DI
w6EEVBzmCCDRe/jISAI5FTvUeSznjQVd43VR4kqQMDJ4h/zj1+Xvm/y/rF7q2tae1jaXdn6UAlZB
IWMiP8UYJdNlP2gMVd5h8l+YdMlnuJrRntObMJ4yJFC1NC3HdfpGdvpe0MOQACXq7nyXtHsTU4DK
Uo+izuN/nXJj2bB0rsVTXytoyazr1rp0khjimLGR1py4opcha9yFpmLrdQcOIzG5DseytENTqI4i
aEufwFs287/l7omnaDLqOnB4ZbXiXVnLK6swT9rofi7Zpezu1cuTKIT3Enqe3PZ3T4dOcuK4mNdb
venn9jpkt5FdyRyxRi0iMzrK4QsAQKID9o75v8uYQIBB9RrZ47BpTlEiDEcEb3NX7vNF6F5V1zW2
P1C3LRKaPO54Rg+HI9T7DKdTrcWH6zv3dXJ0HZOo1X93HbvOw+f6mRfmVos+g/kZq2n3ciPO0kBr
GSVq15E1ByCk7L4ZyHaGpjmymceT6Z2LoJ6XTjHMgysnbluu/wCcY4Xj/L67ZukupzOnyEEC/rU5
hO2T38+v/JT67/0a/wDUZDirD/8AnGqxtL/yLrtleRLPaXN40U8L7qyPAgZT8wcVYSkuqfk7+YV3
p8xkm8v6lGVJp/e2z1Ecg/4shY0P09jiqP8A+cXP+Uu1b/tn/wDM6PFUH/zkEqf8rXtvrtRZtb2l
Seno82D09q8sVfUEfp+mvpU9Og4caceNNqU7Yq+WfKn1L/oYr/QeP1X9LXvpcPs04y/Z9q9MVTz/
AJyo/wCOzoH/ADDz/wDE1xV6N5s/8kPN/wBsS3/5NJirEv8AnFi3iGj69cBR6r3EMbNTfiiMQK/N
ziqRf85TRoPMOiSADm1pIrN3IWWoH0cjir2y9/8AJdyf9sr/AJkZlaH+/h/WH3uv7W/xTL/Ul9zE
Pyc/3v1L/jFH/wASOb3t/wCiPvLx/sZ/eZP6o+96nnMPoCW+Y9WstK0a5vL2MTQKvH0CAfUL7BN6
jfvmTpMEsuQRiaPf3OD2lq8enwSnkHFHu776MK0PVPPOuWbHQobHR9NjYpEQgABB5MAOMleu54AZ
udTh0uGX70zyT/Hu+95bQ6rtDVQ/wcY8OIGht+w/7lifnvT9SsdYji1LUDqN20Cu0hBARSzBUFT7
cu3XNp2blhPGTCPBG3ne3tPlxZwMuTxJ8PPu3O36fi9F/NL/AJRKX/jNF+vOf7F/xge4va+1X+JH
+tFQ/KUWw8syGOnrG4f1/GvFeNf9jk+3L8YXy4dmr2REfyprnxm/sSj85Pq/LS+n1ik1fHh8FK/T
0zL9n79fdt+l13tnw/uv53q+WzN/KgkHlnShJXn9Vh69acBT8M0utrxp1/OL1XZIP5XFfPgj9yUf
mZ+YFn5J8uPqUiCe9mb0dPtSaepKRWrU34IN2+7vmK7B4jpOn/nt+ZCtrEWqS2GnOT6DGeSztjxN
KRRQgs1OnMqf9bFV1v53/Nb8r9ct7Lza02p6RP8AsTyfWBJGCAzW9w1WDJX7DH5gVBxVmHnfRtKN
rY+ZdDIbSNWUOoUUVXccxQfs8hX4exBzrOx9ccoMJfVH7Q+b+0/ZEcEhlxioTO47pftYjm7eTVrO
8ubK6iurWQxXELB45B1BGQyY4ziYyFgtuHNLFMTgalHkyO58x+bfN8kOjgq/qHl6MYEasUFeTkno
KV8M10NJp9IDk/b8nd5O0tZ2iRg2N9Btdd6jpnkvUZfNUOh3yGFh+8uGUgj0QORZSNvi6D3yebtC
AwHLHfu97VpexMstWNPkHD1P9X9vL3pR+aX5pa3Jrg8ieROdrBauLOR7METzTg0aKJh8SqrbEjcm
u9OvG5MhkbJuRfUsOGMIiMRUByCQXf8Azjx+Z8lk2pTG1ubx15vZm4ZromnQsy+kT/z0ytuApk3/
ADjz+YElhet5C1WD6u7STPZSMpSRZxVpYJVI6/CSpO4I4+FFL1r80fLd/wCZfIeraLp/E3tykbQK
5ChmhmSbjU7Dl6dN8VSH8i/I+u+UvKtzba3GsF7eXTT/AFdXWTggRUXkyFlqeJOxxVMvzX/Lu387
eW2tU4x6taEy6bcNsA9PijYj9iQCh8Nj2xVhX5C/lh5u8q6zqeo69bJaJLALaCMSxys5Lhy/7pnA
UcO++Kpx+d/kDSPNUOn8dStNO8yR8o9OjupUi+tISCYQCeRIbdSAaVPjsqwzQvJn/ORotE8uSaid
L0RR6RunmtpGSIELSJ4+dyPh+ytV8NsVYl+XOkwab+e9ppVk5ngsL67gjlNCXWCKVS5ptuFrtir1
D8+/y081ebbvRrrQYEufqyyQXMbSJEUDsrLJWQqCuxrTf2OKs38w+Vb68/LS48s2zo16dNSziZiQ
jSRxqo3psGK9aYqxz8hvIvmHyl5fv4tdhW2ury5EiW4dJGVEQLVmjLJ8R8DiqVfnz+WfmvzdqOjX
WhQR3KwI8FyrSJEYw7BhIeZWq9a8an2xV6dc6RNJ5Wk0hXUzGyNqr9F5+lwB+Vcu0+QQyRkehBcX
XYDlwTxjnKJHzDzXSPK35l6LLK+mW/otKAsjB7V+QU1H94zZ0+fW6LMAJm6/rfoeA0fZXaulJOKP
DfnA/eU0/wCQ0f5/Ucxf9bfxxuf/AK+/jwmSz6Fq+ueThp+tusWqSDk0iUIV0aqcuHw7jZuO3hmu
jqceHUceLeDvZ6DNqtF4WoIGU9fMHa6299fBiGk+WvzP0dpLLTmWG1karSc4XirSnIB+TjpTZc22
fWaLLUp7y+N/Zt9rzWk7M7W0xOPEeGBPO4ke/ff7FTX/AMsNbktoruK6OpatI5N7zYKCDTiUL02X
3Py8Mjpe2cQJiRwYxy/az7Q9l88oicZeLmJ9Vn7r7v7O5lPmrQtW1PycmnxcZdRRYTIvIKHeMDnx
ZqDc9K5rNFqcePUcZ2hu9B2toM2fQjGKOQCPxI5sZ0/yR510bT4bzR7oQ6hKp+u2XJCtQTwoW5Rs
Qp79D0ObLL2jps0zHILgOR3/ALXRafsPX6bGJ4JVkI9Udvhz9J2/YVOy/L/zTrOrC+8zS8IwR6oL
o8jqu/BBHVEX9XhksnamDDj4cA/V9u5YYPZ7V6rN4mrNDruCT5CtgPxT1FEVFCIAqqAFUbAAdBnM
k298AAKD54/5ypN1+k/Lwb/eX0bn0v8AjJzj9T/heGBL3LyjJpknlbSH0vj+jzZwfVQtKCP0wANu
46H3xV5z/wA5MyacvkK3juCv1x76M2Q/bqqP6hHfjxO/0e2KpR5NMrf84/2v1jcLcyfVS38v1pun
08s23Y/9/Gu4vNe0/wDic7/nRr7P2sczsXzB2KozR9XvtIv476ycJPHUDkKqQRQgjwOU58EcsDGX
IuVo9Zk0+QZMZ9QZ5+XWt3WsecL29v2VrqSzKoFHFQqyJ8KjNH2tpo4dPGMPp4v0F672c109TrZ5
Mh9Zx/ZY2Dyf8jGgtfzfli1ui6jxu4ojJsRecqP1/aKiQZzcub3UPpD6mwMnzD5ze0uv+cjbP9Eg
NImp6etw0fT1ojH6x2/l40f3BxV9PYq7FXYq7FXl/wCcv5Q3XnVrXU9Kukt9XsozCIpiRFLHyLgc
lDFGDMaGlD7Yqwn9Ef8AOUkVr+i0nka0QektwJ9P5lQftesxFx9JPLFWUfk9+St55V1J9f1+eOfV
ijJbQQkusXqfbdnYDk5G22w369lXr2KuxV2KuxV2KuxV2KuxV2KuxV2KuxV2KuxViH5ofl7a+d/L
jaeZBBqFu3radcsKhZaEcXpvwcbNT2O9KYq8CsLn88Py3Mum29rdJYBiQnofW7Qs37UcgVwtetAw
9xXFWPedIfzQ1iEeYvNVrftaowijnuIWhij5dAkfFAimnULQnvXFXsvkD8xPy781eV7HylqSjRbq
0ijhgt3k4RO0a8FeGY7Fj14yb1P7XXL9NqZ4Z8Uebh67QY9Vj8PJy/SjtW/KTWIGLabPHeRdkc+l
J+PwH7xnSYO3ccvrBifmHhtX7IZ4G8UhMeex/V9qQyeRPNyNxbTJSR/KVYfepIzOHaenP8YdRLsH
Wg14cvs/Wj7D8r/Ndy49aGO0jPV5pFO3+qnM5Rl7ZwR5Ey9w/W5en9ltZkPqAgPM/qtPnHkT8s4f
0lreperqZQiKFP71g2xEUCmu/Tkxp7jNDru1J5xw1wxex7J9nsWjPHZlk7+Q+A/WwX8wfyzbzjNH
59/LueO7+ulZbq0icQyrOlCZEJKhZP51JDct9yc1b0CRnzR/zkfcWo0f6tqo5fuTP9R9OSnTe59J
af6/L6cVZ/8Akx+TF95dvj5l8ylW1tlZbS0VhJ6HqCjySSCoaVgSvwkgAnck/Cq9ixV2KuxV2Kux
V2KuxV2KuxV2KuxV2KuxV2KuxV2KuxV2KuxV2KuxV2KuxVTuLe3uYJLe4iSaCVSksUih0ZTsQymo
IOKvFfPH/ONOm30sl75Uul06ZyWbT7jk1uSf5HHJ4/lRh8sVYLDY/wDOQPkYCC0j1A2ceyJCo1C2
CjwWkyoPoGKogfn7+bluPSntIGkHUy2cituPBWUfhiqnJ54/5yB8zA29nHfxxPsTZ2n1dR/z34Bl
/wCDxVMvLP8Azjf5q1a6+vebr76ikh5TRI4ubtz/AJUlWjX58m+WKvevK3lHy/5W00adotottBXl
I32pJG/mkc7sf1dsVTjFXYq7FXYq7FXYq7FXYq7FXYq7FXYq7FXYq7FXYq7FXYq7FXYq7FXYq7FX
Yq7FXYq7FXYq7FXYq7FXYq7FXYq7FXYq7FXYq7FXYq7FXYq7FXYq7FXYq7FXYq7FXYq7FXYq7FXY
q7FXYq7FXYq7FXYq7FXYq7FXYq7FXYq7FXYq7FXYq7FXYq7FXYq7FXYq7FXYq7FXYq7FXYq7FXYq
7FXYq7FXYq7FXYq7FXYq7FXYq7FXYq7FXYq7FXYq7FXYq7FXYq7FXYq7FXYq7FXYq7FXYq7FXYq7
FXYq7FXYq7FXYq7FXYq7FXYq7FXYq7FXYq7FXYq7FXYq7FXYq7FXYq7FXYq7FXYq7FXYq7FXYq7F
XYq7FXYq7FXYq7FXYq7FXYq7FXYq7FXYq7FXYq7FXYq7FXYq7FXYq7FXYq7FXYq7FXYq7FXYq7FX
Yq7FXYq7FXYq7FXYq7FXYq7FXYq7FXYq7FXYq7FXYq7FXYq7FXYq7FXYq7FXYq7FXYq7FXYq7FXY
q7FXYq7FXYq7FXYq7FXYq7FXYq7FXYq7FXYq7FXYq7FXYq7FXYq7FXYq7FXYq7FXYq7FXYq7FXYq
7FXYq7FXYq7FXYq7FXYq7FXYq7FXYq7FXYq7FXYq7FXYq7FXYq7FXYq7FXYq7FXYq7FXYq7FXYq7
FXYq7FXYq7FXYq7FXYq7FXYq7FXYq7FXYq7FXYq7FXYq7FXYq7FXYq7FXYq7FXYq7FXYq7FXYq7F
XYq7FXYq7FXYq7FXYq7FXYq7FXYq7FXYq7FXYq7FXYq7FXYq7FXYq7FXYq7FXYq7FXYq7FXYq7FX
Yq7FXYq7FXYq7FXYq7FXYq7FXYq7FXYq7FXYq7FX/9k=
								</xmpGImg:image>
						</rdf:li>
					</rdf:Alt>
				</xmp:Thumbnails>
			</rdf:Description>
			
				<rdf:Description  xmlns:xmpG="http://ns.adobe.com/xap/1.0/g/" rdf:about="" xmlns:xmpTPg="http://ns.adobe.com/xap/1.0/t/pg/" xmlns:stDim="http://ns.adobe.com/xap/1.0/sType/Dimensions#" xmlns:stFnt="http://ns.adobe.com/xap/1.0/sType/Font#">
				<xmpTPg:MaxPageSize  rdf:parseType="Resource">
					<stDim:w>816.333008</stDim:w>
					<stDim:h>289.500000</stDim:h>
					<stDim:unit>Points</stDim:unit>
				</xmpTPg:MaxPageSize>
				<xmpTPg:NPages>1</xmpTPg:NPages>
				<xmpTPg:HasVisibleTransparency>False</xmpTPg:HasVisibleTransparency>
				<xmpTPg:HasVisibleOverprint>False</xmpTPg:HasVisibleOverprint>
				<xmpTPg:Fonts>
					<rdf:Bag>
						<rdf:li  rdf:parseType="Resource">
							<stFnt:fontName>ArialRoundedMTBold</stFnt:fontName>
							<stFnt:fontFamily>Arial Rounded MT Bold</stFnt:fontFamily>
							<stFnt:fontFace>Regular</stFnt:fontFace>
							<stFnt:fontType>Open Type</stFnt:fontType>
							<stFnt:versionString>Version 1.51</stFnt:versionString>
							<stFnt:composite>False</stFnt:composite>
							<stFnt:fontFileName>ARLRDBD.TTF</stFnt:fontFileName>
						</rdf:li>
					</rdf:Bag>
				</xmpTPg:Fonts>
				<xmpTPg:PlateNames>
					<rdf:Seq>
						<rdf:li>Cyan</rdf:li>
						<rdf:li>Magenta</rdf:li>
						<rdf:li>Yellow</rdf:li>
						<rdf:li>Black</rdf:li>
					</rdf:Seq>
				</xmpTPg:PlateNames>
				<xmpTPg:SwatchGroups>
					<rdf:Seq>
						<rdf:li  rdf:parseType="Resource">
							<xmpG:groupName>Grupo de muestras por defecto</xmpG:groupName>
							<xmpG:groupType>0</xmpG:groupType>
						</rdf:li>
					</rdf:Seq>
				</xmpTPg:SwatchGroups>
			</rdf:Description>
			<rdf:Description  rdf:about="" xmlns:dc="http://purl.org/dc/elements/1.1/">
				<dc:format>image/svg+xml</dc:format>
			</rdf:Description>
			
				<rdf:Description  rdf:about="" xmlns:xmpMM="http://ns.adobe.com/xap/1.0/mm/" xmlns:stRef="http://ns.adobe.com/xap/1.0/sType/ResourceRef#" xmlns:stEvt="http://ns.adobe.com/xap/1.0/sType/ResourceEvent#">
				<xmpMM:DerivedFrom  rdf:parseType="Resource">
					<stRef:instanceID>xmp.iid:1E2A4337495CE611BF3AEE205296A180</stRef:instanceID>
					<stRef:documentID>xmp.did:1E2A4337495CE611BF3AEE205296A180</stRef:documentID>
					<stRef:originalDocumentID>xmp.did:1A2A4337495CE611BF3AEE205296A180</stRef:originalDocumentID>
				</xmpMM:DerivedFrom>
				<xmpMM:DocumentID>xmp.did:1F2A4337495CE611BF3AEE205296A180</xmpMM:DocumentID>
				<xmpMM:InstanceID>xmp.iid:1F2A4337495CE611BF3AEE205296A180</xmpMM:InstanceID>
				<xmpMM:OriginalDocumentID>xmp.did:1A2A4337495CE611BF3AEE205296A180</xmpMM:OriginalDocumentID>
				<xmpMM:History>
					<rdf:Seq>
						<rdf:li  rdf:parseType="Resource">
							<stEvt:action>saved</stEvt:action>
							<stEvt:instanceID>xmp.iid:1A2A4337495CE611BF3AEE205296A180</stEvt:instanceID>
							<stEvt:when>2016-08-06T21:47:01-05:00</stEvt:when>
							<stEvt:softwareAgent>Adobe Illustrator CS6 (Windows)</stEvt:softwareAgent>
							<stEvt:changed>/</stEvt:changed>
						</rdf:li>
						<rdf:li  rdf:parseType="Resource">
							<stEvt:action>saved</stEvt:action>
							<stEvt:instanceID>xmp.iid:1F2A4337495CE611BF3AEE205296A180</stEvt:instanceID>
							<stEvt:when>2016-08-07T01:03:56-05:00</stEvt:when>
							<stEvt:softwareAgent>Adobe Illustrator CS6 (Windows)</stEvt:softwareAgent>
							<stEvt:changed>/</stEvt:changed>
						</rdf:li>
					</rdf:Seq>
				</xmpMM:History>
			</rdf:Description>
		</rdf:RDF>
	</x:xmpmeta>
	<sfw  xmlns="&ns_sfw;">
		<slices></slices>
		<sliceSourceBounds  x="166.583" y="34.561" height="504.299" width="771.969" bottomLeftOrigin="true"></sliceSourceBounds>
	</sfw>
</metadata>
<circle id="gray-engine-xl" fill="#FFFDFD" stroke="#404040" stroke-width="15" stroke-miterlimit="10" cx="152.251" cy="153.379" r="106.041"/>
<path id="blue-liquid" fill="#00C1FC" stroke="#FFFFFF" stroke-width="10" stroke-miterlimit="10" d="M240.595,122.847
	c-88.492,46.201-87.087-44.619-175.09-3.314c-3.638,9.921-5.626,20.642-5.632,31.829c-0.031,51.145,41.409,92.625,92.554,92.657
	c51.146,0.028,92.629-41.41,92.659-92.557C245.093,141.477,243.516,131.859,240.595,122.847z"/>
<circle id="gray-engine-sm_3_" fill="#FFFFFF" stroke="#404040" stroke-width="15" stroke-miterlimit="10" cx="60.583" cy="206.722" r="27.666"/>
<circle id="gray-engine-sm_2_" fill="#FFFFFF" stroke="#404040" stroke-width="15" stroke-miterlimit="10" cx="244.085" cy="206.398" r="27.666"/>
<circle id="gray-engine-sm_1_" fill="#FFFFFF" stroke="#404040" stroke-width="15" stroke-miterlimit="10" cx="152.251" cy="47.321" r="27.665"/>
<g id="blue-bubble-group">
	<circle id="white-bubble-xl_1_" fill="#00C1FC" cx="179.922" cy="118.266" r="12.5"/>
	<circle id="white-bubble-sm_1_" fill="#00C1FC" cx="216.092" cy="118.678" r="4"/>
	<path id="white-bublble-md" fill="#00C1FC" d="M206.332,88.766c0,4.143-3.359,7.5-7.5,7.5c-4.139,0-7.5-3.357-7.5-7.5
		c0-4.142,3.361-7.5,7.5-7.5C202.973,81.266,206.332,84.625,206.332,88.766z"/>
</g>
<g id="white-bubble-group">
	<ellipse id="white-bubble-xl" fill="#FFFFFF" cx="166.436" cy="166.54" rx="12.186" ry="12.438"/>
	<ellipse id="white-bubble-sm" fill="#FFFFFF" cx="201.692" cy="166.13" rx="3.897" ry="3.979"/>
	<ellipse id="white-bubble-md" fill="#FFFFFF" cx="184.869" cy="195.893" rx="7.311" ry="7.462"/>
</g>
<path id="gray-engine-sm_7_" fill="none" stroke="#FFFFFF" stroke-width="10" stroke-miterlimit="10" d="M77.826,244.5
	c-5.22,2.499-11.068,3.898-17.243,3.898c-22.092,0-40-17.906-40-40.001c0-22.093,17.908-39.999,40-39.999
	c22.092,0,40,17.906,40,39.999c0,8.284-2.518,15.982-6.832,22.364"/>
<path id="gray-engine-sm_4_" fill="none" stroke="#FFFFFF" stroke-width="10" stroke-miterlimit="10" d="M111.758,43.584
	c0.547-5.762,2.359-11.495,5.54-16.788c11.378-18.936,35.95-25.064,54.889-13.685c18.938,11.378,25.062,35.952,13.684,54.888
	c-11.378,18.937-35.95,25.064-54.887,13.686c-7.101-4.267-12.403-10.389-15.651-17.374"/>
<path id="gray-engine-sm_5_" fill="none" stroke="#FFFFFF" stroke-width="10" stroke-miterlimit="10" d="M268.06,174.567
	c4.597,3.518,8.498,8.093,11.302,13.594c10.029,19.685,2.205,43.771-17.481,53.801c-19.686,10.03-43.769,2.202-53.799-17.481
	c-10.029-19.684-2.205-43.77,17.48-53.8c7.381-3.761,15.383-5.012,23.027-4.065"/>
<g>
	<g>
		<path fill="#404040" d="M300.028,113.056c0-1.5,0.688-2.854,2.063-4.063c1.375-1.207,3.188-1.813,5.438-1.813
			c1.832,0,3.375,0.48,4.625,1.438c1.25,0.959,2.041,2.063,2.375,3.313l33.625,49.125v-48c0-1.5,0.666-2.854,2-4.063
			c1.332-1.207,3.166-1.813,5.5-1.813c2.082,0,3.77,0.605,5.063,1.813c1.291,1.209,1.938,2.563,1.938,4.063v70.75
			c0,1.5-0.646,2.855-1.938,4.063c-1.293,1.207-2.98,1.813-5.063,1.813c-1.834,0-3.355-0.355-4.563-1.063
			c-1.209-0.707-2.063-1.645-2.563-2.813l-0.375-0.625l-33.5-48.625v47.25c0,1.5-0.646,2.855-1.938,4.063
			c-1.293,1.207-3.021,1.813-5.188,1.813c-2.25,0-4.063-0.605-5.438-1.813s-2.063-2.563-2.063-4.063V113.056z"/>
		<path fill="#404040" d="M436.776,188.431c0,4.666-0.75,8.688-2.25,12.063s-3.521,6.166-6.063,8.375
			c-2.543,2.207-5.48,3.854-8.813,4.938c-3.334,1.082-6.834,1.625-10.5,1.625c-3.168,0-6-0.168-8.5-0.5
			c-2.5-0.334-4.293-0.709-5.375-1.125c-2.75-1.75-4.125-3.875-4.125-6.375c0-1.834,0.563-3.293,1.688-4.375
			c1.125-1.084,2.854-1.625,5.188-1.625c0.916,0,2.229,0.166,3.938,0.5c1.707,0.332,4.104,0.5,7.188,0.5
			c1.916,0,3.666-0.188,5.25-0.563c1.582-0.375,2.957-1.084,4.125-2.125c1.166-1.043,2.082-2.459,2.75-4.25
			c0.666-1.793,1-4.146,1-7.063v-6.125l-0.5-0.25c-1.334,2.25-3.271,4.084-5.813,5.5c-2.543,1.416-5.896,2.125-10.063,2.125
			c-7.834,0-13.875-2.438-18.125-7.313s-6.375-11.563-6.375-20.063v-7.375c0-3.916,0.604-7.707,1.813-11.375
			c1.207-3.666,3.02-6.895,5.438-9.688c2.416-2.791,5.438-5.041,9.063-6.75c3.625-1.707,7.895-2.563,12.813-2.563
			c4.582,0,8.541,0.605,11.875,1.813c3.332,1.209,6.063,2.875,8.188,5s3.688,4.646,4.688,7.563c1,2.918,1.5,6.043,1.5,9.375V188.431
			z M409.151,176.056c3.5,0,6.52-1.02,9.063-3.063c2.541-2.041,3.895-5.229,4.063-9.563v-15.625c0-3.25-1.021-5.666-3.063-7.25
			c-2.043-1.582-4.938-2.375-8.688-2.375c-2.168,0-4.125,0.438-5.875,1.313s-3.25,2.043-4.5,3.5c-1.25,1.459-2.23,3.168-2.938,5.125
			c-0.709,1.959-1.063,4.063-1.063,6.313v8.375C396.151,171.64,400.483,176.056,409.151,176.056z"/>
		<path fill="#404040" d="M458.025,108.132c0-1.488,0.688-2.83,2.063-4.029c1.375-1.197,3.188-1.797,5.438-1.797
			c2.166,0,3.895,0.6,5.188,1.797c1.291,1.199,1.938,2.541,1.938,4.029v2.973c0,1.488-0.646,2.832-1.938,4.029
			c-1.293,1.199-3.021,1.797-5.188,1.797c-2.25,0-4.063-0.598-5.438-1.797c-1.375-1.197-2.063-2.541-2.063-4.029V108.132z
			 M458.025,130.556c0-1.5,0.688-2.854,2.063-4.063c1.375-1.207,3.188-1.813,5.438-1.813c2.166,0,3.895,0.605,5.188,1.813
			c1.291,1.209,1.938,2.563,1.938,4.063v53.25c0,1.5-0.646,2.855-1.938,4.063c-1.293,1.207-3.021,1.813-5.188,1.813
			c-2.25,0-4.063-0.605-5.438-1.813s-2.063-2.563-2.063-4.063V130.556z"/>
		<path fill="#404040" d="M521.649,124.681c4.582,0,8.604,0.625,12.063,1.875c3.457,1.25,6.354,3.021,8.688,5.313
			c2.332,2.293,4.082,5.063,5.25,8.313c1.166,3.25,1.75,6.834,1.75,10.75v32.875c0,1.5-0.709,2.855-2.125,4.063
			c-1.418,1.207-3.209,1.813-5.375,1.813c-2.168,0-3.918-0.605-5.25-1.813c-1.334-1.207-2-2.563-2-4.063v-32.125
			c0-4.582-1.23-7.957-3.688-10.125c-2.459-2.166-5.563-3.25-9.313-3.25s-6.875,1.084-9.375,3.25c-2.5,2.168-3.75,5.543-3.75,10.125
			v32.125c0,1.5-0.646,2.855-1.938,4.063c-1.293,1.207-3.021,1.813-5.188,1.813c-2.25,0-4.063-0.605-5.438-1.813
			s-2.063-2.563-2.063-4.063v-31.625c0-3.916,0.582-7.563,1.75-10.938c1.166-3.375,2.916-6.291,5.25-8.75
			c2.332-2.457,5.229-4.375,8.688-5.75C513.044,125.368,517.065,124.681,521.649,124.681z"/>
		<path fill="#00C1FC" d="M570.024,113.056c0-1.5,0.666-2.854,2-4.063c1.332-1.207,3.166-1.813,5.5-1.813
			c2.082,0,3.791,0.605,5.125,1.813c1.332,1.209,2,2.563,2,4.063v62.125h26.625c2.332,0,4.104,0.605,5.313,1.813
			c1.207,1.209,1.813,2.855,1.813,4.938c0,1.918-0.605,3.48-1.813,4.688c-1.209,1.209-2.98,1.813-5.313,1.813h-34.5
			c-2.168-0.166-3.834-0.832-5-2c-1.168-1.166-1.75-2.457-1.75-3.875V113.056z"/>
		<path fill="#00C1FC" d="M678.023,190.306c-2.084,0-3.771-0.605-5.063-1.813c-1.293-1.207-1.938-2.563-1.938-4.063v-2l-1.125-0.375
			c-0.75,1.084-1.563,2.084-2.438,3c-0.875,0.918-1.938,1.73-3.188,2.438c-1.25,0.709-2.73,1.25-4.438,1.625
			c-1.709,0.375-3.813,0.563-6.313,0.563c-4,0-7.5-0.73-10.5-2.188s-5.459-3.354-7.375-5.688c-1.918-2.332-3.355-5-4.313-8
			c-0.959-3-1.438-6.082-1.438-9.25v-11c0-3.5,0.625-6.957,1.875-10.375c1.25-3.416,3.082-6.5,5.5-9.25
			c2.416-2.75,5.457-4.979,9.125-6.688c3.666-1.707,7.957-2.563,12.875-2.563c4.582,0,8.541,0.625,11.875,1.875
			c3.332,1.25,6.063,2.98,8.188,5.188c2.125,2.209,3.688,4.813,4.688,7.813s1.5,6.293,1.5,9.875v35c0,1.5-0.668,2.855-2,4.063
			C682.189,189.7,680.355,190.306,678.023,190.306z M671.023,149.681c0-4.166-1.021-7.104-3.063-8.813
			c-2.043-1.707-4.938-2.563-8.688-2.563c-2.168,0-4.125,0.396-5.875,1.188c-1.75,0.793-3.25,1.875-4.5,3.25
			s-2.23,2.938-2.938,4.688c-0.709,1.75-1.063,3.625-1.063,5.625v12c0,3,1.125,5.584,3.375,7.75c2.25,2.168,5.041,3.25,8.375,3.25
			c1.832,0,3.604-0.313,5.313-0.938c1.707-0.625,3.229-1.541,4.563-2.75c1.332-1.207,2.416-2.729,3.25-4.563
			c0.832-1.832,1.25-3.957,1.25-6.375V149.681z"/>
		<path fill="#00C1FC" d="M721.022,130.806l0.75,0.375c1.666-2.082,3.75-3.688,6.25-4.813s5.332-1.688,8.5-1.688
			c4.582,0,8.541,0.73,11.875,2.188c3.332,1.459,6.082,3.5,8.25,6.125c2.166,2.625,3.791,5.709,4.875,9.25
			c1.082,3.543,1.625,7.438,1.625,11.688v7.25c0,3.918-0.563,7.605-1.688,11.063c-1.125,3.459-2.855,6.5-5.188,9.125
			c-2.334,2.625-5.23,4.709-8.688,6.25c-3.459,1.541-7.521,2.313-12.188,2.313c-4.834,0-9.063-0.625-12.688-1.875
			s-6.646-3-9.063-5.25c-2.418-2.25-4.23-4.895-5.438-7.938c-1.209-3.041-1.813-6.354-1.813-9.938v-55.625
			c0-1.5,0.688-2.854,2.063-4.063c1.375-1.207,3.188-1.813,5.438-1.813c2.166,0,3.895,0.605,5.188,1.813
			c1.291,1.209,1.938,2.563,1.938,4.063V130.806z M734.147,138.306c-3.668,0-6.73,1.021-9.188,3.063
			c-2.459,2.043-3.771,5.271-3.938,9.688v14.375c0,3.75,1.375,6.5,4.125,8.25s6.166,2.625,10.25,2.625c3.916,0,7.063-1.332,9.438-4
			c2.375-2.666,3.563-6.207,3.563-10.625v-7.5c0-5.166-1.313-9.104-3.938-11.813C741.835,139.661,738.397,138.306,734.147,138.306z"
			/>
	</g>
</g>
<g display="none">
	<path display="inline" fill="#404040" d="M334.137,408.703l32.063,48.516v-48.965c0-3.181,0.683-5.567,2.05-7.159
		c1.365-1.591,3.209-2.386,5.531-2.386c2.395,0,4.285,0.795,5.671,2.386c1.384,1.592,2.077,3.979,2.077,7.159v64.744
		c0,7.226-2.995,10.838-8.984,10.838c-1.497,0-2.845-0.217-4.043-0.646c-1.198-0.431-2.321-1.113-3.369-2.049
		s-2.021-2.03-2.92-3.285c-0.898-1.254-1.797-2.536-2.695-3.847l-31.276-47.954v48.234c0,3.145-0.729,5.522-2.19,7.132
		c-1.459,1.609-3.332,2.415-5.615,2.415c-2.357,0-4.248-0.814-5.671-2.443c-1.423-1.628-2.134-3.995-2.134-7.104v-63.508
		c0-2.695,0.299-4.81,0.898-6.346c0.711-1.684,1.89-3.06,3.537-4.127c1.647-1.066,3.426-1.6,5.335-1.6
		c1.497,0,2.779,0.244,3.847,0.729c1.066,0.487,2.002,1.143,2.808,1.966c0.804,0.823,1.628,1.891,2.471,3.2
		C332.368,405.916,333.238,407.281,334.137,408.703z"/>
	<path display="inline" fill="#404040" d="M457.39,432.736v44.529c0,5.092-0.544,9.471-1.629,13.14
		c-1.086,3.668-2.827,6.7-5.223,9.097c-2.396,2.396-5.53,4.174-9.405,5.334c-3.874,1.16-8.694,1.741-14.459,1.741
		c-5.278,0-9.995-0.739-14.15-2.218c-4.155-1.479-7.356-3.389-9.603-5.728c-2.246-2.34-3.369-4.745-3.369-7.216
		c0-1.872,0.637-3.397,1.91-4.576c1.271-1.18,2.807-1.77,4.604-1.77c2.246,0,4.212,0.992,5.896,2.977
		c0.823,1.011,1.675,2.03,2.555,3.061c0.879,1.029,1.854,1.909,2.92,2.639c1.067,0.73,2.349,1.272,3.847,1.629
		c1.497,0.355,3.219,0.533,5.166,0.533c3.968,0,7.047-0.553,9.237-1.656c2.189-1.104,3.725-2.649,4.604-4.633
		c0.879-1.984,1.394-4.108,1.544-6.373c0.149-2.265,0.262-5.905,0.337-10.922c-2.358,3.295-5.082,5.803-8.17,7.524
		c-3.089,1.723-6.767,2.583-11.034,2.583c-5.129,0-9.611-1.31-13.448-3.931c-3.838-2.62-6.786-6.289-8.845-11.006
		s-3.088-10.163-3.088-16.341c0-4.604,0.626-8.76,1.881-12.465c1.254-3.707,3.041-6.832,5.363-9.378
		c2.32-2.546,4.997-4.464,8.029-5.756c3.032-1.291,6.363-1.937,9.995-1.937c4.342,0,8.104,0.833,11.286,2.498
		c3.182,1.666,6.14,4.277,8.873,7.834v-2.078c0-2.658,0.654-4.717,1.965-6.177c1.31-1.46,2.994-2.19,5.054-2.19
		c2.957,0,4.922,0.965,5.896,2.893S457.39,429.106,457.39,432.736z M412.973,452.166c0,6.214,1.356,10.912,4.071,14.094
		c2.714,3.182,6.223,4.773,10.528,4.773c2.545,0,4.95-0.684,7.216-2.05c2.265-1.366,4.107-3.426,5.531-6.177
		c1.422-2.752,2.133-6.093,2.133-10.023c0-6.252-1.375-11.118-4.127-14.6c-2.751-3.481-6.373-5.223-10.865-5.223
		c-4.38,0-7.89,1.666-10.528,4.998C414.292,441.291,412.973,446.026,412.973,452.166z"/>
	<path display="inline" fill="#404040" d="M482.937,414.375c-2.135,0-3.959-0.654-5.476-1.965c-1.516-1.311-2.274-3.164-2.274-5.56
		c0-2.171,0.777-3.959,2.331-5.362c1.553-1.404,3.359-2.105,5.419-2.105c1.983,0,3.742,0.637,5.277,1.908
		c1.535,1.273,2.303,3.127,2.303,5.56c0,2.358-0.749,4.202-2.246,5.531C486.772,413.711,484.994,414.375,482.937,414.375z
		 M490.517,430.21v44.304c0,3.07-0.73,5.391-2.189,6.963c-1.461,1.572-3.313,2.359-5.56,2.359s-4.071-0.806-5.475-2.415
		c-1.404-1.609-2.106-3.911-2.106-6.907v-43.854c0-3.032,0.702-5.315,2.106-6.851c1.403-1.535,3.229-2.303,5.475-2.303
		s4.099,0.768,5.56,2.303C489.786,425.344,490.517,427.479,490.517,430.21z"/>
	<path display="inline" fill="#404040" d="M522.577,429.985v1.853c2.695-3.556,5.644-6.166,8.845-7.833
		c3.2-1.665,6.878-2.499,11.034-2.499c4.043,0,7.654,0.881,10.837,2.64c3.182,1.761,5.56,4.249,7.132,7.468
		c1.01,1.873,1.665,3.895,1.965,6.064c0.299,2.172,0.449,4.941,0.449,8.311v28.525c0,3.07-0.702,5.391-2.105,6.963
		c-1.404,1.572-3.229,2.359-5.475,2.359c-2.284,0-4.138-0.806-5.56-2.415c-1.423-1.609-2.134-3.911-2.134-6.907v-25.549
		c0-5.054-0.702-8.918-2.105-11.596c-1.404-2.676-4.203-4.015-8.395-4.015c-2.733,0-5.223,0.814-7.469,2.442
		c-2.246,1.629-3.894,3.866-4.941,6.711c-0.749,2.283-1.123,6.551-1.123,12.803v19.203c0,3.108-0.722,5.438-2.162,6.991
		c-1.441,1.553-3.304,2.331-5.587,2.331c-2.209,0-4.024-0.806-5.446-2.415c-1.424-1.609-2.135-3.911-2.135-6.907V430.21
		c0-2.92,0.637-5.101,1.91-6.542c1.271-1.44,3.013-2.162,5.222-2.162c1.348,0,2.563,0.318,3.649,0.955s1.956,1.592,2.611,2.863
		C522.249,426.598,522.577,428.152,522.577,429.985z"/>
	<path display="inline" fill="#00C1FC" d="M597.819,408.816v59.914h33.805c2.695,0,4.763,0.655,6.204,1.965
		c1.44,1.312,2.162,2.958,2.162,4.941c0,2.021-0.712,3.66-2.134,4.914c-1.423,1.255-3.501,1.881-6.232,1.881h-40.262
		c-3.632,0-6.242-0.805-7.833-2.414c-1.592-1.609-2.387-4.212-2.387-7.806v-63.396c0-3.369,0.758-5.896,2.274-7.581
		c1.516-1.685,3.51-2.526,5.98-2.526c2.507,0,4.538,0.833,6.092,2.498C597.042,402.873,597.819,405.41,597.819,408.816z"/>
	<path display="inline" fill="#00C1FC" d="M690.917,475.188c-3.705,2.884-7.291,5.046-10.753,6.486
		c-3.463,1.44-7.347,2.162-11.651,2.162c-3.931,0-7.384-0.778-10.36-2.331c-2.976-1.553-5.27-3.658-6.878-6.317
		c-1.61-2.657-2.415-5.539-2.415-8.646c0-4.192,1.328-7.768,3.987-10.726c2.657-2.956,6.307-4.941,10.949-5.952
		c0.973-0.225,3.388-0.73,7.244-1.516c3.854-0.787,7.159-1.507,9.91-2.162c2.752-0.654,5.736-1.451,8.957-2.387
		c-0.188-4.043-1.003-7.01-2.443-8.9c-1.441-1.89-4.427-2.836-8.956-2.836c-3.894,0-6.822,0.543-8.788,1.629
		c-1.965,1.086-3.649,2.715-5.054,4.885c-1.403,2.172-2.396,3.604-2.976,4.296c-0.581,0.693-1.825,1.039-3.734,1.039
		c-1.723,0-3.21-0.552-4.464-1.656c-1.255-1.104-1.882-2.518-1.882-4.239c0-2.695,0.955-5.315,2.864-7.861s4.886-4.642,8.929-6.289
		s9.077-2.471,15.104-2.471c6.738,0,12.035,0.795,15.892,2.386c3.854,1.592,6.578,4.108,8.17,7.553
		c1.591,3.444,2.387,8.011,2.387,13.701c0,3.594-0.01,6.646-0.028,9.153c-0.02,2.508-0.048,5.297-0.085,8.366
		c0,2.884,0.478,5.888,1.433,9.013c0.954,3.126,1.432,5.138,1.432,6.036c0,1.572-0.739,3.004-2.218,4.296
		c-1.479,1.291-3.154,1.938-5.025,1.938c-1.572,0-3.127-0.74-4.661-2.219C694.268,480.139,692.639,477.996,690.917,475.188z
		 M689.907,453.008c-2.246,0.824-5.513,1.694-9.799,2.611c-4.287,0.918-7.254,1.592-8.9,2.021c-1.647,0.431-3.22,1.273-4.717,2.526
		c-1.498,1.255-2.246,3.005-2.246,5.251c0,2.321,0.879,4.295,2.639,5.924c1.76,1.628,4.062,2.442,6.907,2.442
		c3.032,0,5.83-0.664,8.395-1.993c2.563-1.328,4.445-3.041,5.644-5.139c1.385-2.32,2.078-6.139,2.078-11.455V453.008z"/>
	<path display="inline" fill="#00C1FC" d="M735.444,407.469v23.415c2.883-2.995,5.821-5.287,8.816-6.879
		c2.994-1.591,6.7-2.386,11.118-2.386c5.091,0,9.555,1.207,13.393,3.621c3.837,2.415,6.813,5.916,8.928,10.501
		c2.114,4.586,3.173,10.022,3.173,16.312c0,4.643-0.59,8.9-1.769,12.775c-1.18,3.874-2.892,7.234-5.138,10.079
		c-2.246,2.846-4.97,5.045-8.171,6.598c-3.2,1.553-6.729,2.331-10.585,2.331c-2.357,0-4.576-0.281-6.653-0.843
		c-2.078-0.562-3.847-1.3-5.307-2.218c-1.46-0.917-2.705-1.862-3.734-2.836c-1.03-0.973-2.386-2.433-4.071-4.38v1.517
		c0,2.883-0.692,5.063-2.077,6.541c-1.386,1.479-3.145,2.219-5.278,2.219c-2.172,0-3.902-0.74-5.194-2.219
		c-1.291-1.479-1.937-3.658-1.937-6.541v-66.934c0-3.107,0.626-5.456,1.881-7.048c1.254-1.591,3.004-2.386,5.25-2.386
		c2.358,0,4.174,0.758,5.447,2.273C734.808,402.499,735.444,404.66,735.444,407.469z M736.175,453.008
		c0,6.102,1.395,10.791,4.184,14.066c2.788,3.275,6.447,4.913,10.978,4.913c3.855,0,7.178-1.675,9.967-5.025
		c2.788-3.351,4.184-8.151,4.184-14.403c0-4.043-0.581-7.524-1.741-10.444s-2.807-5.175-4.941-6.767
		c-2.133-1.59-4.623-2.387-7.468-2.387c-2.92,0-5.522,0.797-7.806,2.387c-2.283,1.592-4.08,3.895-5.391,6.907
		C736.829,445.269,736.175,448.853,736.175,453.008z"/>
</g>
</svg>
